# xmcd
#
# Track frame offsets: 
#        150
#        20612
#        41655
#        63130
#        80462
#        102935
#        117012
#        134212
#        155385
#        175420
#        194732
#        211070
#
# Disc length: 3233 seconds
#
# Revision: 4
# Processed by: cddbd v1.5.1PL2 Copyright (c) Steve Scherf et al.
# Submitted via: ExactAudioCopy v0.90b3
#
DISCID=a60c9f0c
DTITLE=Duke Robillard - Explorer
DYEAR=2000
DGENRE=Blues
TTITLE0=Male Magnet
TTITLE1=Just Between Me And You
TTITLE2=Soulful
TTITLE3=Hang On
TTITLE4=You Mean Everything To Me
TTITLE5=Sayin' Don't Make It So
TTITLE6=Jumpin' With Duke
TTITLE7=Misunderstanding Blues
TTITLE8=You Dropped The Thing On Me
TTITLE9=Lonesome Old Town
TTITLE10=Brand New Fool
TTITLE11=Time Is Short
EXTD=
EXTT0=
EXTT1=
EXTT2=
EXTT3=
EXTT4=
EXTT5=
EXTT6=
EXTT7=
EXTT8=
EXTT9=
EXTT10=
EXTT11=
PLAYORDER=
